<svg xmlns="http://www.w3.org/2000/svg" xmlns:xlink="http://www.w3.org/1999/xlink" viewBox="0 0 132.11 180.65"><defs><style>.cls-1{fill:url(#Degradado_sin_nombre_62);}.cls-2{fill:#323e48;}.cls-3{fill:#566069;}</style><linearGradient id="Degradado_sin_nombre_62" x1="29.68" y1="14.98" x2="102.54" y2="87.85" gradientUnits="userSpaceOnUse"><stop offset="0" stop-color="#3dae2b"/><stop offset="0.28" stop-color="#1f9a40"/><stop offset="0.52" stop-color="#008556"/><stop offset="0.66" stop-color="#0d8e4d"/><stop offset="0.9" stop-color="#2fa535"/><stop offset="0.99" stop-color="#3dae2b"/></linearGradient></defs><title>Recurso 3</title><g id="Capa_2" data-name="Capa 2"><g id="Capa_1-2" data-name="Capa 1"><path class="cls-1" d="M94.88,8.74A52,52,0,0,0,44.47,4.66c-18.23,8.28-29.8,27-30,46.82,0,4.06,6.27,4.06,6.31,0A45.26,45.26,0,0,1,86.33,11a45.27,45.27,0,0,1,7.39,76.3C77.8,99.6,56.64,99.14,40,88.44l4.6-5.81a4.52,4.52,0,0,0,.47.37,37.84,37.84,0,0,0,58.77-30.64A37.83,37.83,0,0,0,50.38,17,38.25,38.25,0,0,0,28.21,51.48c-.05,4.06,6.26,4.06,6.31,0A31.54,31.54,0,0,1,80,23.2c20.32,10.22,23.5,38.83,5.58,53C74.87,84.76,59.93,85,48.53,77.7l4.78-6c.06.06.14.11.21.17a2.67,2.67,0,0,0,.84.48C69.93,80.62,89.57,70,90,51.92c.36-17.3-18.06-29.26-33.76-22.21a24.23,24.23,0,0,0-14,21.77c-.08,4.06,6.22,4.06,6.31,0a17.61,17.61,0,1,1,8.8,15.24l0,0,5.82-7.36a8.55,8.55,0,0,0,3,.56,8.43,8.43,0,1,0-7-3.69l-26.89,34,3.87,3.06a3.67,3.67,0,0,0,.56.45c16.73,10.9,38,12.46,55.44,2.26a52,52,0,0,0,25.51-42.75A52,52,0,0,0,94.88,8.74Z"/><path class="cls-2" d="M0,120.45a2.77,2.77,0,0,1,1-2.33,4.86,4.86,0,0,1,3-.8v10.34H14.9v-7.21A2.73,2.73,0,0,1,16,118.12a4.94,4.94,0,0,1,3.06-.8v21.3A2.74,2.74,0,0,1,18,140.93a4.94,4.94,0,0,1-3.06.82V131.23H4.08v7.39a2.77,2.77,0,0,1-1,2.33,5,5,0,0,1-3,.8Z"/><path class="cls-2" d="M27.9,140.61a8.75,8.75,0,0,1-3.52-3.15,8.28,8.28,0,0,1-1.28-4.53V120.45a2.77,2.77,0,0,1,1-2.33,4.88,4.88,0,0,1,3-.8v15.61a4.83,4.83,0,0,0,1.59,3.8,6.06,6.06,0,0,0,4.2,1.41,6,6,0,0,0,4.17-1.43,4.85,4.85,0,0,0,1.58-3.78V120.45a2.74,2.74,0,0,1,1-2.33,4.86,4.86,0,0,1,3-.8v15.61a8.27,8.27,0,0,1-1.27,4.53A8.85,8.85,0,0,1,38,140.61a10.92,10.92,0,0,1-5,1.14A11.06,11.06,0,0,1,27.9,140.61Z"/><path class="cls-2" d="M46.92,120.65a3.1,3.1,0,0,1,1-2.45,4,4,0,0,1,2.77-.88L62.74,136l.3-.28-1.25-2.07V117.32a4.93,4.93,0,0,1,3,.78,2.77,2.77,0,0,1,1,2.35v18.37a2.69,2.69,0,0,1-1,2.06,3.29,3.29,0,0,1-2.31.87L50,122.28l-.3.24L51,124.63v14a2.78,2.78,0,0,1-1,2.33,4.88,4.88,0,0,1-3,.8Z"/><path class="cls-2" d="M76.42,121.2H68.15q0-3.58,3.3-3.58H88.73a3.83,3.83,0,0,1-.83,2.67,3.18,3.18,0,0,1-2.47.91H80.5v17.42a2.74,2.74,0,0,1-1.06,2.31,4.87,4.87,0,0,1-3,.82Z"/><path class="cls-2" d="M91.9,119.49a1.7,1.7,0,0,1,.59-1.32,2.13,2.13,0,0,1,1.48-.55h15.14a4.4,4.4,0,0,1-.66,2.69,2.52,2.52,0,0,1-2.13.85H96v6.5h9.22a4.4,4.4,0,0,1-.66,2.69,2.53,2.53,0,0,1-2.1.85H96v6.7H107a2.48,2.48,0,0,1,2.09.85,4.4,4.4,0,0,1,.66,2.69H94a2.13,2.13,0,0,1-1.48-.54,1.77,1.77,0,0,1-.59-1.37Z"/><path class="cls-2" d="M113.3,119.49a1.7,1.7,0,0,1,.59-1.32,2.13,2.13,0,0,1,1.48-.55h9.15a7.74,7.74,0,0,1,5.57,1.94,7,7,0,0,1,2,5.34,6.32,6.32,0,0,1-.85,3.39,5.88,5.88,0,0,1-2.55,2.19v.14a4.81,4.81,0,0,1,2.28,1.92,5.93,5.93,0,0,1,.78,3.15v2.93a2.75,2.75,0,0,1-1,2.33,4.92,4.92,0,0,1-3,.8v-5.89q0-3.68-3.13-3.67h-7.21v6.43a2.78,2.78,0,0,1-1,2.33,4.88,4.88,0,0,1-3,.8Zm11,9.19a3.55,3.55,0,0,0,2.68-1,3.91,3.91,0,0,0,1-2.81q0-3.74-3.65-3.74h-7v7.55Z"/><path class="cls-3" d="M16.81,176.31H16v4.21H14.55v-10.8h2.26a2.08,2.08,0,0,1,2.31,2.35V174A2.08,2.08,0,0,1,16.81,176.31Zm.88-4.17c0-.68-.28-1.11-.88-1.11H16v4h.84c.6,0,.88-.43.88-1.11Z"/><path class="cls-3" d="M23.29,180.52v-3.65c0-.67-.28-1.11-.88-1.11h-.79v4.76H20.19v-10.8h2.22a2.12,2.12,0,0,1,2.31,2.42v1.32a1.8,1.8,0,0,1-.9,1.63,1.8,1.8,0,0,1,.9,1.78v3.65Zm0-8.38c0-.68-.28-1.11-.88-1.11h-.79v3.54h.79c.6,0,.88-.43.88-1.11Z"/><path class="cls-3" d="M28.19,180.65a2.13,2.13,0,0,1-2.31-2.32v-6.42a2.13,2.13,0,0,1,2.31-2.32,2.13,2.13,0,0,1,2.32,2.32v6.42A2.13,2.13,0,0,1,28.19,180.65Zm.9-8.66c0-.76-.37-1.11-.9-1.11s-.89.35-.89,1.11v6.26c0,.76.36,1.11.89,1.11s.9-.35.9-1.11Z"/><path class="cls-3" d="M37.5,180.52v-7c0-1,.1-2.32.1-2.32h0l-1.51,9.36H34.64l-1.51-9.36h0s.1,1.28.1,2.32v7H31.84v-10.8H34l1.13,6.81c.13.79.18,2.1.18,2.1h0s.05-1.31.18-2.1l1.13-6.81h2.18v10.8Z"/><path class="cls-3" d="M42.51,180.65a2.13,2.13,0,0,1-2.32-2.32v-6.42a2.32,2.32,0,0,1,4.64,0v6.42A2.13,2.13,0,0,1,42.51,180.65ZM43.4,172c0-.76-.36-1.11-.89-1.11s-.9.35-.9,1.11v6.26c0,.76.37,1.11.9,1.11s.89-.35.89-1.11Z"/><path class="cls-3" d="M48.85,180.52H47.21l-1.76-10.8h1.41l1,6.76c.12.78.2,2.1.2,2.1h0s.09-1.34.2-2.1l1-6.76h1.41Z"/><path class="cls-3" d="M51.42,180.52v-10.8H55V171H52.84v3.26h1.87v1.33H52.84v3.62H55v1.28Z"/><path class="cls-3" d="M61.64,180.52v-7c0-1,.1-2.32.1-2.32h0l-1.5,9.36H58.77l-1.51-9.36h0s.1,1.28.1,2.32v7H56v-10.8h2.19l1.13,6.81c.13.79.18,2.1.18,2.1h0s0-1.31.18-2.1l1.13-6.81H63v10.8Z"/><path class="cls-3" d="M66.64,180.65a2.13,2.13,0,0,1-2.32-2.32v-6.42a2.32,2.32,0,1,1,4.64,0v6.42A2.13,2.13,0,0,1,66.64,180.65Zm.89-8.66c0-.76-.36-1.11-.89-1.11s-.89.35-.89,1.11v6.26c0,.76.36,1.11.89,1.11s.89-.35.89-1.11Z"/><path class="cls-3" d="M72.19,180.65a2.13,2.13,0,0,1-2.32-2.32v-1.22h1.41v1.14c0,.76.41,1.11.91,1.11.66,0,1-.43,1-1.24a2.14,2.14,0,0,0-.66-1.69l-1.61-1.74a3.3,3.3,0,0,1-1-2.57c0-1.46.69-2.53,2.3-2.53a2.09,2.09,0,0,1,2.28,2.32v1.22h-1.4V172c0-.76-.35-1.11-.88-1.11s-.9.5-.9,1.24a2.15,2.15,0,0,0,.67,1.69l1.6,1.74a3.27,3.27,0,0,1,1,2.57A2.28,2.28,0,0,1,72.19,180.65Z"/><path class="cls-3" d="M80.44,171v9.49H79V171H77.46v-1.31H82V171Z"/><path class="cls-3" d="M85.32,180.52,85,177.75H83.39L83,180.52H81.6l1.65-10.8h1.88l1.64,10.8Zm-.92-7.19c-.1-.78-.2-2.1-.2-2.1h0s-.09,1.34-.19,2.1l-.4,3.25h1.22Z"/><path class="cls-3" d="M87.51,180.52v-10.8h1.43v9.52h2.12v1.28Z"/><path class="cls-3" d="M91.9,180.52v-10.8h3.55V171H93.32v3.26H95.2v1.33H93.32v3.62h2.13v1.28Z"/><path class="cls-3" d="M99.8,180.52l-2.18-8.12h0a20,20,0,0,1,.18,2.32v5.8h-1.3v-10.8h1.59l2.18,8.12h0a22.42,22.42,0,0,1-.17-2.32v-5.8h1.31v10.8Z"/><path class="cls-3" d="M105.15,171v9.49h-1.42V171h-1.56v-1.31h4.54V171Z"/><path class="cls-3" d="M109.62,180.65a2.13,2.13,0,0,1-2.32-2.32v-6.42a2.32,2.32,0,0,1,4.64,0v6.42A2.13,2.13,0,0,1,109.62,180.65Zm.9-8.66c0-.76-.37-1.11-.9-1.11s-.89.35-.89,1.11v6.26c0,.76.36,1.11.89,1.11s.9-.35.9-1.11Z"/><path class="cls-3" d="M115.17,180.65a2.13,2.13,0,0,1-2.32-2.32v-1.22h1.41v1.14c0,.76.42,1.11.91,1.11.67,0,1-.43,1-1.24a2.15,2.15,0,0,0-.67-1.69l-1.6-1.74a3.3,3.3,0,0,1-1-2.57c0-1.46.7-2.53,2.3-2.53a2.09,2.09,0,0,1,2.29,2.32v1.22H116.1V172c0-.76-.35-1.11-.88-1.11s-.89.5-.89,1.24a2.14,2.14,0,0,0,.66,1.69l1.61,1.74a3.3,3.3,0,0,1,1,2.57A2.28,2.28,0,0,1,115.17,180.65Z"/><path class="cls-3" d="M0,146.24a.88.88,0,0,1,.28-.68,1,1,0,0,1,.73-.25H8.29a5.75,5.75,0,0,1,2.79.65A4.48,4.48,0,0,1,13,147.8a5.42,5.42,0,0,1,.67,2.73,5.2,5.2,0,0,1-1.45,3.85,5.24,5.24,0,0,1-3.88,1.45H2V161a1.62,1.62,0,0,1-.5,1.28A2.18,2.18,0,0,1,0,162.7Zm8.29,7.85a3.28,3.28,0,0,0,2.47-1,3.59,3.59,0,0,0,.92-2.6,3.45,3.45,0,0,0-.93-2.52,3.28,3.28,0,0,0-2.46-1H2v7Z"/><path class="cls-3" d="M16.61,146.24a.88.88,0,0,1,.28-.68,1,1,0,0,1,.73-.25h6.86a5.52,5.52,0,0,1,2.65.62,4.37,4.37,0,0,1,1.78,1.76,5.24,5.24,0,0,1,.63,2.6A4.27,4.27,0,0,1,27,154.43v.08a3.47,3.47,0,0,1,1.72,1.41,4.17,4.17,0,0,1,.61,2.29V161a1.59,1.59,0,0,1-.5,1.28,2.18,2.18,0,0,1-1.46.44v-4.34a3.29,3.29,0,0,0-.7-2.28,2.57,2.57,0,0,0-2.05-.79h-6V161c0,1.15-.65,1.72-1.94,1.72Zm7.83,7.34a3,3,0,0,0,2.26-.91,3.38,3.38,0,0,0,.85-2.41,3.31,3.31,0,0,0-.82-2.38,3,3,0,0,0-2.29-.86H18.55v6.56Z"/><path class="cls-3" d="M35.34,161.89a6.28,6.28,0,0,1-2.48-2.22,5.81,5.81,0,0,1-.89-3.15v-5.3a5.74,5.74,0,0,1,.88-3.14,6.15,6.15,0,0,1,2.47-2.2,8.8,8.8,0,0,1,7.29,0,6.09,6.09,0,0,1,2.48,2.19,5.71,5.71,0,0,1,.89,3.15v5.3a5.77,5.77,0,0,1-.89,3.16,6.09,6.09,0,0,1-2.49,2.21,8,8,0,0,1-3.64.81A7.84,7.84,0,0,1,35.34,161.89Zm7.39-2.12a4.21,4.21,0,0,0,1.33-3.28v-5.25A4.16,4.16,0,0,0,42.74,148,5.42,5.42,0,0,0,39,146.8,5.36,5.36,0,0,0,35.22,148a4.14,4.14,0,0,0-1.34,3.23v5.25a4.21,4.21,0,0,0,1.34,3.28A5.36,5.36,0,0,0,39,161,5.42,5.42,0,0,0,42.73,159.77Z"/><path class="cls-3" d="M57.89,162.1a5.19,5.19,0,0,1-2.25-1.61,3.49,3.49,0,0,1-.76-2.16,1.77,1.77,0,0,1,.43-1.28,1.73,1.73,0,0,1,1.29-.48,4.22,4.22,0,0,0,1.26,3.31A5.31,5.31,0,0,0,61.5,161a6.45,6.45,0,0,0,3.48-.8,2.56,2.56,0,0,0,1.24-2.27,2.46,2.46,0,0,0-.45-1.51,3.4,3.4,0,0,0-1.52-1,20.75,20.75,0,0,0-3-.84,10.92,10.92,0,0,1-4.65-1.81,3.83,3.83,0,0,1-1.38-3.12,3.93,3.93,0,0,1,.76-2.41,4.73,4.73,0,0,1,2.17-1.58,8.89,8.89,0,0,1,3.27-.55,9.13,9.13,0,0,1,3.13.51,5.24,5.24,0,0,1,2.21,1.45,3.16,3.16,0,0,1,.8,2.11,1.46,1.46,0,0,1-.41,1.07,1.73,1.73,0,0,1-1.21.43,4.12,4.12,0,0,0-1.32-3,5,5,0,0,0-3.25-.94,5.53,5.53,0,0,0-3.1.73,2.34,2.34,0,0,0-1.09,2.06,2.58,2.58,0,0,0,.4,1.5,3.09,3.09,0,0,0,1.36,1,14.83,14.83,0,0,0,2.68.79A18.65,18.65,0,0,1,65.49,154a4.77,4.77,0,0,1,2.06,1.59,4.37,4.37,0,0,1-1.2,5.82,8.46,8.46,0,0,1-4.92,1.27A9.43,9.43,0,0,1,57.89,162.1Z"/><path class="cls-3" d="M71.15,146.24a.88.88,0,0,1,.28-.68,1,1,0,0,1,.72-.25h7.29a5.71,5.71,0,0,1,2.78.65,4.51,4.51,0,0,1,1.88,1.84,5.52,5.52,0,0,1,.66,2.73,5,5,0,0,1-5.32,5.3H73.11V161a1.62,1.62,0,0,1-.5,1.28,2.19,2.19,0,0,1-1.46.44Zm8.29,7.85a3.24,3.24,0,0,0,2.46-1,3.55,3.55,0,0,0,.92-2.6,3.45,3.45,0,0,0-.93-2.52,3.26,3.26,0,0,0-2.45-1H73.11v7Z"/><path class="cls-3" d="M89.85,161.89a6.19,6.19,0,0,1-2.47-2.22,5.73,5.73,0,0,1-.9-3.15v-5.3a5.74,5.74,0,0,1,.88-3.14,6.15,6.15,0,0,1,2.47-2.2,8,8,0,0,1,3.64-.79,8.11,8.11,0,0,1,3.66.79,6.16,6.16,0,0,1,2.48,2.19,5.79,5.79,0,0,1,.88,3.15v5.3a5.85,5.85,0,0,1-.88,3.16,6.06,6.06,0,0,1-2.5,2.21,8,8,0,0,1-3.64.81A7.84,7.84,0,0,1,89.85,161.89Zm7.39-2.12a4.21,4.21,0,0,0,1.33-3.28v-5.25A4.16,4.16,0,0,0,97.25,148a6.45,6.45,0,0,0-7.52,0,4.14,4.14,0,0,0-1.34,3.23v5.25a4.21,4.21,0,0,0,1.34,3.28,6.43,6.43,0,0,0,7.51,0Z"/><path class="cls-3" d="M103.58,146.24a.88.88,0,0,1,.28-.68,1,1,0,0,1,.73-.25h6.86a5.52,5.52,0,0,1,2.65.62,4.37,4.37,0,0,1,1.78,1.76,5.24,5.24,0,0,1,.63,2.6,4.27,4.27,0,0,1-2.58,4.14v.08a3.47,3.47,0,0,1,1.72,1.41,4.17,4.17,0,0,1,.61,2.29V161a1.59,1.59,0,0,1-.5,1.28,2.18,2.18,0,0,1-1.46.44v-4.34a3.29,3.29,0,0,0-.7-2.28,2.57,2.57,0,0,0-2-.79h-6V161c0,1.15-.65,1.72-1.94,1.72Zm7.83,7.34a3,3,0,0,0,2.27-.91,3.42,3.42,0,0,0,.84-2.41,3.31,3.31,0,0,0-.82-2.38,3,3,0,0,0-2.29-.86h-5.89v6.56Z"/><path class="cls-3" d="M124.16,147.05h-6c0-1.16.56-1.74,1.67-1.74h12.29a1.79,1.79,0,0,1-.43,1.3,1.66,1.66,0,0,1-1.24.44h-4.31V161a1.59,1.59,0,0,1-.51,1.28,2.16,2.16,0,0,1-1.46.44Z"/></g></g></svg>